<svg width="500" height="500" viewBox="0 0 500 500" fill="none" xmlns="http://www.w3.org/2000/svg">
<path d="M70.3514 308.378C57.1006 308.378 45.5062 306.335 35.5681 302.249C25.63 297.968 17.8354 292.13 12.1843 284.735C6.72811 277.341 4 268.681 4 258.757H47.8446C47.8446 263.427 49.8906 267.222 53.9828 270.141C58.2698 272.865 63.726 274.227 70.3514 274.227H83.2125C91.202 274.227 97.2428 272.768 101.335 269.849C105.622 266.93 107.765 262.843 107.765 257.589C107.765 252.724 105.914 249.027 102.212 246.497C98.5094 243.773 92.7609 241.924 84.9663 240.951L66.2593 238.616C46.1882 236.086 31.5734 231.222 22.4147 224.022C13.2561 216.822 8.67675 205.827 8.67675 191.038C8.67675 175.47 14.0355 163.405 24.7531 154.843C35.4707 146.281 51.1573 142 71.8129 142H82.9202C102.602 142 118.288 146.281 129.98 154.843C141.672 163.405 147.518 174.886 147.518 189.286H103.673C103.673 185.395 101.725 182.281 97.8274 179.946C94.1249 177.416 89.1559 176.151 82.9202 176.151H71.8129C64.6029 176.151 59.3416 177.416 56.0289 179.946C52.7162 182.281 51.0598 185.881 51.0598 190.746C51.0598 195.222 52.5213 198.627 55.4443 200.962C58.5621 203.297 63.4338 204.951 70.0592 205.924L90.2277 208.551C110.494 211.081 125.498 216.141 135.241 223.73C145.18 231.319 150.149 242.605 150.149 257.589C150.149 273.935 144.497 286.486 133.195 295.243C121.893 304 105.232 308.378 83.2125 308.378H70.3514Z" />
<path d="M183.941 358V144.919H226.324V175.568H236.554L226.324 185.784C226.324 171.968 230.124 161.265 237.724 153.676C245.323 145.892 255.748 142 268.999 142C285.173 142 298.132 147.741 307.875 159.222C317.618 170.508 322.49 185.686 322.49 204.757V245.622C322.49 258.27 320.249 269.362 315.767 278.897C311.48 288.238 305.342 295.535 297.352 300.789C289.363 305.849 279.912 308.378 268.999 308.378C255.748 308.378 245.323 304.584 237.724 296.995C230.124 289.211 226.324 278.411 226.324 264.595L236.554 274.811H226.324L227.785 314.216V358H183.941ZM253.215 270.432C261.4 270.432 267.635 268.195 271.922 263.719C276.404 259.049 278.645 252.53 278.645 244.162V206.216C278.645 197.654 276.404 191.135 271.922 186.659C267.635 182.184 261.4 179.946 253.215 179.946C245.226 179.946 238.99 182.281 234.508 186.951C230.026 191.427 227.785 197.849 227.785 206.216V244.162C227.785 252.53 230.026 259.049 234.508 263.719C238.99 268.195 245.226 270.432 253.215 270.432Z" />
<path d="M382.296 358V322.973H427.602C435.787 322.973 442.022 320.93 446.309 316.843C450.791 312.757 453.032 307.114 453.032 299.914V293.784L453.617 263.135H443.386L453.617 252.919C453.617 266.735 449.817 277.535 442.217 285.319C434.618 292.908 424.192 296.703 410.942 296.703C394.768 296.703 381.809 291.059 372.066 279.773C362.323 268.486 357.451 253.211 357.451 233.946V204.757C357.451 185.686 362.323 170.508 372.066 159.222C381.809 147.741 394.768 142 410.942 142C424.192 142 434.618 145.892 442.217 153.676C449.817 161.265 453.617 171.968 453.617 185.784L443.386 175.568H453.617L452.155 144.919H496V301.373C496 318.886 489.959 332.703 477.878 342.822C465.991 352.941 449.72 358 429.064 358H382.296ZM426.726 258.757C434.715 258.757 440.951 256.519 445.433 252.043C449.914 247.373 452.155 240.854 452.155 232.486V206.216C452.155 197.849 449.914 191.427 445.433 186.951C440.951 182.281 434.715 179.946 426.726 179.946C418.541 179.946 412.208 182.281 407.726 186.951C403.439 191.427 401.296 197.849 401.296 206.216V232.486C401.296 240.854 403.439 247.373 407.726 252.043C412.208 256.519 418.541 258.757 426.726 258.757Z" />
<style>
  path {
    fill: #1a1b1e;
  }
  @media (prefers-color-scheme: dark) {
    path {
      fill: #099268;
    }
  }
</style>
</svg>
